<svg xmlns="http://www.w3.org/2000/svg" width="344" height="345" viewBox="0 0 344 345">
  <g fill="none" fill-rule="evenodd">
    <path fill="#000" d="M73.013407,2.6866064 C106.18824,0.895535467 139.183771,-3.78753344e-15 172,0 C204.832174,0 237.664282,0.896405919 270.496323,2.68921776 L270.496323,2.68921771 C308.699378,4.77531668 339.208201,35.2833237 341.295323,73.4863222 C343.098441,106.490881 344,139.495441 344,172.5 C344,205.511425 343.098066,238.52285 341.294197,271.534276 L341.294197,271.534275 C339.20649,309.740047 308.693155,340.248892 270.487077,342.330977 C237.836179,344.110326 205.007154,345 172,345 C139.007428,345 106.01479,344.111111 73.0220864,342.333334 L73.0220864,342.333335 C34.4742283,340.256224 3.79947595,309.257162 2.12787429,270.689591 C0.709291429,237.959727 1.89395185e-15,205.229864 0,172.5 C0,139.776865 0.708999838,107.053729 2.12699951,74.3305938 L2.12699924,74.3305938 C3.79813889,35.7657548 34.4685114,4.76760084 73.013407,2.6866064 Z"/>
    <path fill="#5F5F5F" fill-rule="nonzero" d="M261.139286,125.857143 L186.771429,125.857143 C183.82065,125.857143 181.428571,128.249221 181.428571,131.2 L181.428571,136.228571 C181.428571,139.17935 183.82065,141.571429 186.771429,141.571429 L261.139286,141.571429 C263.98158,141.571429 266.285714,143.875563 266.285714,146.717857 L266.285714,152.060714 C266.285714,154.946402 263.946402,157.285714 261.060714,157.285714 L186.771429,157.285714 C183.82065,157.285714 181.428571,159.677793 181.428571,162.628571 L181.428571,167.657143 C181.428571,170.607921 183.82065,173 186.771429,173 L257.996429,173 C262.574475,173 266.285714,176.71124 266.285714,181.289286 L266.285714,214.996429 C266.285714,216.361346 265.743503,217.670361 264.77836,218.635503 C263.813218,219.600646 262.504203,220.142857 261.139286,220.142857 L186.771429,220.142857 C183.82065,220.142857 181.428571,222.534936 181.428571,225.485714 L181.428571,230.514286 C181.428571,233.465064 183.82065,235.857143 186.771429,235.857143 L261.139286,235.857143 C266.671891,235.857143 271.977895,233.659324 275.890038,229.747181 C279.802181,225.835038 282,220.529034 282,214.996429 L282,146.717857 C282,135.196803 272.66034,125.857143 261.139286,125.857143 Z"/>
    <path fill="#5F5F5F" fill-rule="nonzero" d="M234.857143,201.757143 C236.984977,204.278156 240.461027,205.201486 243.559407,204.068692 C246.657788,202.935898 248.718577,199.988253 248.718577,196.689286 C248.718577,193.390318 246.657788,190.442674 243.559407,189.30988 C240.461027,188.177085 236.984977,189.100415 234.857143,191.621429 C232.729309,189.100415 229.253259,188.177085 226.154878,189.30988 C223.056497,190.442674 220.995708,193.390318 220.995708,196.689286 C220.995708,199.988253 223.056497,202.935898 226.154878,204.068692 C229.253259,205.201486 232.729309,204.278156 234.857143,201.757143 Z"/>
    <path fill="#FFF" fill-rule="nonzero" d="M86.7107143,283 L163.003571,283 C176.650922,283 187.714286,271.936636 187.714286,258.289286 L187.714286,87.7107143 C187.714286,74.0633636 176.650922,63 163.003571,63 L86.7107143,63 C73.0633636,63 62,74.0633636 62,87.7107143 L62,258.289286 C62,271.936636 73.0633636,283 86.7107143,283 Z M77.7142857,87.7107143 C77.7142857,82.742124 81.742124,78.7142857 86.7107143,78.7142857 L91.0321429,78.7142857 C93.0907196,78.7247444 94.9450141,79.9609407 95.7464286,81.8571429 L99.0464286,89.7142857 C100.305698,92.5999421 103.165943,94.4552364 106.314286,94.4285714 L142.771429,94.4285714 C145.793753,94.4200158 148.543265,92.6786583 149.842857,89.95 L153.771429,81.6214286 C154.64298,79.8173208 156.48236,78.6830363 158.485714,78.7142857 L163.003571,78.7142857 C165.389573,78.7142857 167.677849,79.662121 169.365007,81.3492786 C171.052165,83.0364363 172,85.3247131 172,87.7107143 L172,125.857143 L130.003571,125.857143 C118.482517,125.857143 109.142857,135.196803 109.142857,146.717857 L109.142857,214.996429 C109.142857,220.529034 111.340676,225.835038 115.252819,229.747181 C119.164962,233.659324 124.470966,235.857143 130.003571,235.857143 L172,235.857143 L172,258.289286 C172,263.257876 167.972162,267.285714 163.003571,267.285714 L86.7107143,267.285714 C81.742124,267.285714 77.7142857,263.257876 77.7142857,258.289286 L77.7142857,87.7107143 Z"/>
    <path fill="#000" d="M130,157 L172,157 L172,173 L130,173 C127.238576,173 125,170.761424 125,168 L125,162 C125,159.238576 127.238576,157 130,157 Z"/>
  </g>
</svg>
